<svg width="2804" height="548" viewBox="0 0 2804 548" fill="none" xmlns="http://www.w3.org/2000/svg">
<path d="M0 535.004L101.416 9.55364H326.293C375.776 9.55364 414.481 20.3321 442.407 41.889C471.313 64.9157 485.766 96.7612 485.766 137.425C485.766 165.841 477.682 190.338 461.514 210.915C445.346 231.492 422.81 246.435 393.904 255.743V257.948C443.387 276.076 468.128 311.84 468.128 365.243C468.128 417.665 447.551 459.799 406.397 491.645C369.652 520.551 323.109 535.004 266.767 535.004H0ZM146.979 431.383H263.092C287.099 431.383 306.206 425.749 320.414 414.481C335.112 402.722 342.461 385.33 342.461 362.303C342.461 344.176 336.582 330.213 324.824 320.414C313.555 310.616 298.367 305.716 279.26 305.716H171.231L146.979 431.383ZM188.133 218.264H292.488C312.085 218.264 328.498 213.609 341.726 204.301C354.954 194.992 361.568 179.559 361.568 158.002C361.568 143.794 356.914 132.526 347.605 124.197C338.297 115.379 325.069 110.969 307.921 110.969H208.71L188.133 218.264Z" fill="black"/>
<path d="M482.992 535.004L584.408 9.55364H713.015L632.176 425.504H858.524L837.947 535.004H482.992Z" fill="black"/>
<path d="M884.171 535.004L985.586 9.55364H1367L1346.42 115.379H1093.62L1075.24 211.65H1292.77L1273.66 311.595H1055.4L1033.35 425.504H1294.98L1273.66 535.004H884.171Z" fill="black"/>
<path d="M1331.28 535.004L1432.69 9.55364H1561.3L1653.16 267.502L1676.68 341.726H1678.15L1742.82 9.55364H1867.02L1765.6 535.004H1637L1547.34 284.404L1521.62 200.626H1520.15L1455.48 535.004H1331.28Z" fill="black"/>
<path d="M1835.8 535.004L1937.22 9.55364H2125.35C2192.96 9.55364 2246.85 29.1508 2287.03 68.3452C2327.2 107.54 2347.29 162.657 2347.29 233.697C2347.29 326.293 2321.81 400.028 2270.86 454.9C2220.4 508.302 2151.81 535.004 2065.09 535.004H1835.8ZM1984.99 426.239H2065.09C2113.1 426.239 2150.34 409.581 2176.79 376.266C2203.25 342.461 2216.48 297.143 2216.48 240.311C2216.48 200.136 2206.92 169.761 2187.82 149.184C2169.2 128.117 2141.76 117.583 2105.51 117.583H2044.51L1984.99 426.239Z" fill="black"/>
<path d="M2568.74 547.497C2538.36 547.497 2510.19 544.312 2484.23 537.943C2458.26 531.574 2434.25 521.775 2412.21 508.547C2390.65 495.319 2373.75 476.947 2361.5 453.43C2349.74 429.424 2344.35 401.498 2345.33 369.652H2473.94C2473.45 395.618 2482.02 414.726 2499.66 426.974C2517.3 439.222 2541.55 445.346 2572.41 445.346C2596.91 445.346 2617 440.937 2632.68 432.118C2648.84 422.81 2656.93 408.357 2656.93 388.759C2656.93 374.062 2649.58 362.303 2634.88 353.484C2620.18 344.176 2592.99 332.418 2553.31 318.21C2500.39 299.592 2461.44 279.505 2436.46 257.948C2411.96 236.391 2399.71 205.771 2399.71 166.086C2399.71 113.174 2418.09 72.2647 2454.83 43.3588C2492.07 14.4529 2540.81 0 2601.07 0C2628.02 0 2653.25 2.93959 2676.77 8.81876C2700.29 14.208 2722.09 23.0267 2742.17 35.275C2762.26 47.0333 2777.69 63.6909 2788.47 85.2478C2799.74 106.805 2804.64 132.281 2803.17 161.677H2678.24C2678.73 141.1 2671.87 125.422 2657.66 114.644C2643.45 103.375 2623.12 97.741 2596.67 97.741C2577.56 97.741 2560.66 101.905 2545.96 110.234C2531.26 118.563 2523.67 131.056 2523.18 147.714C2523.18 161.432 2529.05 171.72 2540.81 178.579C2553.06 185.439 2579.03 195.727 2618.71 209.445C2626.06 211.895 2631.7 213.854 2635.61 215.324C2686.08 232.962 2724.05 253.294 2749.52 276.321C2775 298.857 2787.74 330.213 2787.74 370.387C2787.74 427.219 2766.92 471.068 2725.27 501.933C2684.12 532.309 2631.94 547.497 2568.74 547.497Z" fill="black"/>
</svg>
