<svg preserveAspectRatio="none" width="100%" height="100%" overflow="visible" style="display: block;" viewBox="0 0 12 12" fill="none" xmlns="http://www.w3.org/2000/svg">
<g id="Icon" clip-path="url(#clip0_0_4)">
<path id="Vector" d="M6 1C6.53043 1 7.03914 1.21071 7.41421 1.58579C7.78929 1.96086 8 2.46957 8 3V4H4V3C4 2.46957 4.21071 1.96086 4.58579 1.58579C4.96086 1.21071 5.46957 1 6 1ZM3 4V3C3 2.20435 3.31607 1.44129 3.87868 0.87868C4.44129 0.31607 5.20435 0 6 0C6.79565 0 7.55871 0.31607 8.12132 0.87868C8.68393 1.44129 9 2.20435 9 3V4H9.5C9.89782 4 10.2794 4.15804 10.5607 4.43934C10.842 4.72064 11 5.10218 11 5.5V9.5C11 9.89782 10.842 10.2794 10.5607 10.5607C10.2794 10.842 9.89782 11 9.5 11H2.5C2.10218 11 1.72064 10.842 1.43934 10.5607C1.15804 10.2794 1 9.89782 1 9.5V5.5C1 5.10218 1.15804 4.72064 1.43934 4.43934C1.72064 4.15804 2.10218 4 2.5 4H3Z" stroke="var(--stroke-0, #1B1D1E)" stroke-opacity="0.25" stroke-width="0.9" stroke-linecap="round" stroke-linejoin="round"/>
</g>
<defs>
<clipPath id="clip0_0_4">
<rect width="12" height="12" fill="white"/>
</clipPath>
</defs>
</svg>
