<svg preserveAspectRatio="none" width="100%" height="100%" overflow="visible" style="display: block;" viewBox="0 0 16 16" fill="none" xmlns="http://www.w3.org/2000/svg">
<g id="Icon">
<path id="Vector" d="M2.667 2.667H5.333L6.667 6L5 7C5.71393 8.44752 6.88548 9.61907 8.333 10.333L9.333 8.667L12.667 10V12.667C12.667 12.8421 12.6325 13.0156 12.5654 13.1773C12.4984 13.3391 12.4001 13.4861 12.2762 13.6099C12.1523 13.7337 12.0053 13.8319 11.8434 13.8988C11.6816 13.9657 11.5081 14.0001 11.333 14C5.44 14 1.333 9.893 1.333 4C1.333 3.82486 1.36751 3.65144 1.43456 3.48965C1.50162 3.32786 1.59989 3.18087 1.72378 3.05707C1.84767 2.93328 1.99473 2.83511 2.15658 2.76818C2.31842 2.70125 2.49186 2.66687 2.667 2.667Z" stroke="var(--stroke-0, white)" stroke-opacity="0.5" stroke-width="1.2" stroke-linecap="round" stroke-linejoin="round"/>
</g>
</svg>
